# xmcd CD database file
#
# Track frame offsets:
#	150
#	23476
#	47074
#	63505
#	79954
#	102173
#	117120
#	140980
#	152174
#	171946
#	193612
#	215110
#	238944
#	258620
#	280660
#	280960
#	281260
#	281560
#	281860
#	282160
#	282460
#	282760
#	283060
#	283360
#	283660
#	283960
#	284260
#	284560
#	284860
#	285160
#	285460
#	285760
#	286060
#	286360
#	286660
#	286960
#	287260
#	287560
#	287860
#	288160
#	288460
#	288760
#	289060
#	289360
#	289660
#	289960
#	290260
#	290560
#	290860
#	291160
#	291460
#	291760
#	292060
#	292360
#	292660
#	292960
#	293260
#	293560
#	293860
#	294160
#	294460
#	294760
#	295060
#	295360
#	295660
#	295960
#
# Disc length: 4414 seconds
#
# Revision: 2
# Processed by: cddbd v1.5.2PL0 Copyright (c) Steve Scherf et al.
# Submitted via: CDex 1.70beta2
#
DISCID=cb113c42
DTITLE=She Wants Revenge - She Wants Revenge (Special Edition)
DYEAR=2006
DGENRE=New Age
TTITLE0=Red Flags And Long Nights
TTITLE1=These Things
TTITLE2=I Don't Wanna Fall In Love
TTITLE3=Out Of Control
TTITLE4=Monologue
TTITLE5=Broken Promises For Broken Hearts
TTITLE6=Sister
TTITLE7=Disconnect
TTITLE8=Us
TTITLE9=Someone Must Get Hurt
TTITLE10=Tear You Appart
TTITLE11=She Loves Me, She Loves Me Not
TTITLE12=Spend The Night (Bonus Track)
TTITLE13=Black Liner Run (Bonus Track)
TTITLE14=Blank
TTITLE15=Blank
TTITLE16=Blank
TTITLE17=Blank
TTITLE18=Blank
TTITLE19=Blank
TTITLE20=Blank
TTITLE21=Blank
TTITLE22=Blank
TTITLE23=Blank
TTITLE24=Blank
TTITLE25=Blank
TTITLE26=Blank
TTITLE27=Blank
TTITLE28=Blank
TTITLE29=Blank
TTITLE30=Blank
TTITLE31=Blank
TTITLE32=Blank
TTITLE33=Blank
TTITLE34=Blank
TTITLE35=Blank
TTITLE36=Blank
TTITLE37=Blank
TTITLE38=Blank
TTITLE39=Blank
TTITLE40=Blank
TTITLE41=Blank
TTITLE42=Blank
TTITLE43=Blank
TTITLE44=Blank
TTITLE45=Blank
TTITLE46=Blank
TTITLE47=Blank
TTITLE48=Blank
TTITLE49=Blank
TTITLE50=Blank
TTITLE51=Blank
TTITLE52=Blank
TTITLE53=Blank
TTITLE54=Blank
TTITLE55=Blank
TTITLE56=Blank
TTITLE57=Blank
TTITLE58=Blank
TTITLE59=Blank
TTITLE60=Blank
TTITLE61=Blank
TTITLE62=Blank
TTITLE63=Blank
TTITLE64=Blank
TTITLE65=Hidden Track
EXTD=9857524 Flawless Records\n YEAR: 2006
EXTT0=
EXTT1=
EXTT2=
EXTT3=
EXTT4=
EXTT5=
EXTT6=
EXTT7=
EXTT8=
EXTT9=
EXTT10=
EXTT11=
EXTT12=
EXTT13=
EXTT14=
EXTT15=
EXTT16=
EXTT17=
EXTT18=
EXTT19=
EXTT20=
EXTT21=
EXTT22=
EXTT23=
EXTT24=
EXTT25=
EXTT26=
EXTT27=
EXTT28=
EXTT29=
EXTT30=
EXTT31=
EXTT32=
EXTT33=
EXTT34=
EXTT35=
EXTT36=
EXTT37=
EXTT38=
EXTT39=
EXTT40=
EXTT41=
EXTT42=
EXTT43=
EXTT44=
EXTT45=
EXTT46=
EXTT47=
EXTT48=
EXTT49=
EXTT50=
EXTT51=
EXTT52=
EXTT53=
EXTT54=
EXTT55=
EXTT56=
EXTT57=
EXTT58=
EXTT59=
EXTT60=
EXTT61=
EXTT62=
EXTT63=
EXTT64=
EXTT65=
PLAYORDER=
